%TF.GenerationSoftware,KiCad,Pcbnew,(5.1.6-0-10_14)*%
%TF.CreationDate,2020-11-28T15:25:20+01:00*%
%TF.ProjectId,Raspberry_Pi_Hat,52617370-6265-4727-9279-5f50695f4861,v1.0*%
%TF.SameCoordinates,Original*%
%TF.FileFunction,Soldermask,Top*%
%TF.FilePolarity,Negative*%
%FSLAX46Y46*%
G04 Gerber Fmt 4.6, Leading zero omitted, Abs format (unit mm)*
G04 Created by KiCad (PCBNEW (5.1.6-0-10_14)) date 2020-11-28 15:25:20*
%MOMM*%
%LPD*%
G01*
G04 APERTURE LIST*
%ADD10O,1.624000X1.624000*%
%ADD11R,1.800000X1.800000*%
%ADD12O,1.800000X1.800000*%
G04 APERTURE END LIST*
%TO.C,R4*%
G36*
G01*
X127067500Y-110717250D02*
X127067500Y-109754750D01*
G75*
G02*
X127336250Y-109486000I268750J0D01*
G01*
X127873750Y-109486000D01*
G75*
G02*
X128142500Y-109754750I0J-268750D01*
G01*
X128142500Y-110717250D01*
G75*
G02*
X127873750Y-110986000I-268750J0D01*
G01*
X127336250Y-110986000D01*
G75*
G02*
X127067500Y-110717250I0J268750D01*
G01*
G37*
G36*
G01*
X125192500Y-110717250D02*
X125192500Y-109754750D01*
G75*
G02*
X125461250Y-109486000I268750J0D01*
G01*
X125998750Y-109486000D01*
G75*
G02*
X126267500Y-109754750I0J-268750D01*
G01*
X126267500Y-110717250D01*
G75*
G02*
X125998750Y-110986000I-268750J0D01*
G01*
X125461250Y-110986000D01*
G75*
G02*
X125192500Y-110717250I0J268750D01*
G01*
G37*
%TD*%
%TO.C,D2*%
G36*
G01*
X130488500Y-109754750D02*
X130488500Y-110717250D01*
G75*
G02*
X130219750Y-110986000I-268750J0D01*
G01*
X129682250Y-110986000D01*
G75*
G02*
X129413500Y-110717250I0J268750D01*
G01*
X129413500Y-109754750D01*
G75*
G02*
X129682250Y-109486000I268750J0D01*
G01*
X130219750Y-109486000D01*
G75*
G02*
X130488500Y-109754750I0J-268750D01*
G01*
G37*
G36*
G01*
X132363500Y-109754750D02*
X132363500Y-110717250D01*
G75*
G02*
X132094750Y-110986000I-268750J0D01*
G01*
X131557250Y-110986000D01*
G75*
G02*
X131288500Y-110717250I0J268750D01*
G01*
X131288500Y-109754750D01*
G75*
G02*
X131557250Y-109486000I268750J0D01*
G01*
X132094750Y-109486000D01*
G75*
G02*
X132363500Y-109754750I0J-268750D01*
G01*
G37*
%TD*%
%TO.C,D1*%
G36*
G01*
X132363500Y-113564750D02*
X132363500Y-114527250D01*
G75*
G02*
X132094750Y-114796000I-268750J0D01*
G01*
X131557250Y-114796000D01*
G75*
G02*
X131288500Y-114527250I0J268750D01*
G01*
X131288500Y-113564750D01*
G75*
G02*
X131557250Y-113296000I268750J0D01*
G01*
X132094750Y-113296000D01*
G75*
G02*
X132363500Y-113564750I0J-268750D01*
G01*
G37*
G36*
G01*
X130488500Y-113564750D02*
X130488500Y-114527250D01*
G75*
G02*
X130219750Y-114796000I-268750J0D01*
G01*
X129682250Y-114796000D01*
G75*
G02*
X129413500Y-114527250I0J268750D01*
G01*
X129413500Y-113564750D01*
G75*
G02*
X129682250Y-113296000I268750J0D01*
G01*
X130219750Y-113296000D01*
G75*
G02*
X130488500Y-113564750I0J-268750D01*
G01*
G37*
%TD*%
%TO.C,R1*%
G36*
G01*
X115599500Y-110516750D02*
X115599500Y-111479250D01*
G75*
G02*
X115330750Y-111748000I-268750J0D01*
G01*
X114793250Y-111748000D01*
G75*
G02*
X114524500Y-111479250I0J268750D01*
G01*
X114524500Y-110516750D01*
G75*
G02*
X114793250Y-110248000I268750J0D01*
G01*
X115330750Y-110248000D01*
G75*
G02*
X115599500Y-110516750I0J-268750D01*
G01*
G37*
G36*
G01*
X117474500Y-110516750D02*
X117474500Y-111479250D01*
G75*
G02*
X117205750Y-111748000I-268750J0D01*
G01*
X116668250Y-111748000D01*
G75*
G02*
X116399500Y-111479250I0J268750D01*
G01*
X116399500Y-110516750D01*
G75*
G02*
X116668250Y-110248000I268750J0D01*
G01*
X117205750Y-110248000D01*
G75*
G02*
X117474500Y-110516750I0J-268750D01*
G01*
G37*
%TD*%
%TO.C,R2*%
G36*
G01*
X123417250Y-116361500D02*
X122454750Y-116361500D01*
G75*
G02*
X122186000Y-116092750I0J268750D01*
G01*
X122186000Y-115555250D01*
G75*
G02*
X122454750Y-115286500I268750J0D01*
G01*
X123417250Y-115286500D01*
G75*
G02*
X123686000Y-115555250I0J-268750D01*
G01*
X123686000Y-116092750D01*
G75*
G02*
X123417250Y-116361500I-268750J0D01*
G01*
G37*
G36*
G01*
X123417250Y-114486500D02*
X122454750Y-114486500D01*
G75*
G02*
X122186000Y-114217750I0J268750D01*
G01*
X122186000Y-113680250D01*
G75*
G02*
X122454750Y-113411500I268750J0D01*
G01*
X123417250Y-113411500D01*
G75*
G02*
X123686000Y-113680250I0J-268750D01*
G01*
X123686000Y-114217750D01*
G75*
G02*
X123417250Y-114486500I-268750J0D01*
G01*
G37*
%TD*%
%TO.C,R3*%
G36*
G01*
X125095500Y-114527250D02*
X125095500Y-113564750D01*
G75*
G02*
X125364250Y-113296000I268750J0D01*
G01*
X125901750Y-113296000D01*
G75*
G02*
X126170500Y-113564750I0J-268750D01*
G01*
X126170500Y-114527250D01*
G75*
G02*
X125901750Y-114796000I-268750J0D01*
G01*
X125364250Y-114796000D01*
G75*
G02*
X125095500Y-114527250I0J268750D01*
G01*
G37*
G36*
G01*
X126970500Y-114527250D02*
X126970500Y-113564750D01*
G75*
G02*
X127239250Y-113296000I268750J0D01*
G01*
X127776750Y-113296000D01*
G75*
G02*
X128045500Y-113564750I0J-268750D01*
G01*
X128045500Y-114527250D01*
G75*
G02*
X127776750Y-114796000I-268750J0D01*
G01*
X127239250Y-114796000D01*
G75*
G02*
X126970500Y-114527250I0J268750D01*
G01*
G37*
%TD*%
D10*
%TO.C,SW1*%
X119329200Y-119862600D03*
X112826800Y-119862600D03*
X119329200Y-115341400D03*
X112826800Y-115341400D03*
%TD*%
D11*
%TO.C,U1*%
X130810000Y-118872000D03*
D12*
X128270000Y-118872000D03*
X125730000Y-118872000D03*
X123190000Y-118872000D03*
%TD*%
D11*
%TO.C,J1*%
X113160000Y-106510000D03*
D12*
X113160000Y-103970000D03*
X115700000Y-106510000D03*
X115700000Y-103970000D03*
X118240000Y-106510000D03*
X118240000Y-103970000D03*
X120780000Y-106510000D03*
X120780000Y-103970000D03*
X123320000Y-106510000D03*
X123320000Y-103970000D03*
X125860000Y-106510000D03*
X125860000Y-103970000D03*
X128400000Y-106510000D03*
X128400000Y-103970000D03*
X130940000Y-106510000D03*
X130940000Y-103970000D03*
%TD*%
M02*
