%TF.GenerationSoftware,KiCad,Pcbnew,(5.1.6-0-10_14)*%
%TF.CreationDate,2020-11-28T15:25:20+01:00*%
%TF.ProjectId,Raspberry_Pi_Hat,52617370-6265-4727-9279-5f50695f4861,v1.0*%
%TF.SameCoordinates,Original*%
%TF.FileFunction,Copper,L1,Top*%
%TF.FilePolarity,Positive*%
%FSLAX46Y46*%
G04 Gerber Fmt 4.6, Leading zero omitted, Abs format (unit mm)*
G04 Created by KiCad (PCBNEW (5.1.6-0-10_14)) date 2020-11-28 15:25:20*
%MOMM*%
%LPD*%
G01*
G04 APERTURE LIST*
%TA.AperFunction,ComponentPad*%
%ADD10O,1.524000X1.524000*%
%TD*%
%TA.AperFunction,ComponentPad*%
%ADD11R,1.700000X1.700000*%
%TD*%
%TA.AperFunction,ComponentPad*%
%ADD12O,1.700000X1.700000*%
%TD*%
%TA.AperFunction,ViaPad*%
%ADD13C,1.000000*%
%TD*%
%TA.AperFunction,ViaPad*%
%ADD14C,0.800000*%
%TD*%
%TA.AperFunction,Conductor*%
%ADD15C,0.300000*%
%TD*%
G04 APERTURE END LIST*
%TO.P,R4,2*%
%TO.N,Net-(D2-Pad2)*%
%TA.AperFunction,SMDPad,CuDef*%
G36*
G01*
X127117500Y-110692250D02*
X127117500Y-109779750D01*
G75*
G02*
X127361250Y-109536000I243750J0D01*
G01*
X127848750Y-109536000D01*
G75*
G02*
X128092500Y-109779750I0J-243750D01*
G01*
X128092500Y-110692250D01*
G75*
G02*
X127848750Y-110936000I-243750J0D01*
G01*
X127361250Y-110936000D01*
G75*
G02*
X127117500Y-110692250I0J243750D01*
G01*
G37*
%TD.AperFunction*%
%TO.P,R4,1*%
%TO.N,/3v3*%
%TA.AperFunction,SMDPad,CuDef*%
G36*
G01*
X125242500Y-110692250D02*
X125242500Y-109779750D01*
G75*
G02*
X125486250Y-109536000I243750J0D01*
G01*
X125973750Y-109536000D01*
G75*
G02*
X126217500Y-109779750I0J-243750D01*
G01*
X126217500Y-110692250D01*
G75*
G02*
X125973750Y-110936000I-243750J0D01*
G01*
X125486250Y-110936000D01*
G75*
G02*
X125242500Y-110692250I0J243750D01*
G01*
G37*
%TD.AperFunction*%
%TD*%
%TO.P,D2,2*%
%TO.N,Net-(D2-Pad2)*%
%TA.AperFunction,SMDPad,CuDef*%
G36*
G01*
X130438500Y-109779750D02*
X130438500Y-110692250D01*
G75*
G02*
X130194750Y-110936000I-243750J0D01*
G01*
X129707250Y-110936000D01*
G75*
G02*
X129463500Y-110692250I0J243750D01*
G01*
X129463500Y-109779750D01*
G75*
G02*
X129707250Y-109536000I243750J0D01*
G01*
X130194750Y-109536000D01*
G75*
G02*
X130438500Y-109779750I0J-243750D01*
G01*
G37*
%TD.AperFunction*%
%TO.P,D2,1*%
%TO.N,GND*%
%TA.AperFunction,SMDPad,CuDef*%
G36*
G01*
X132313500Y-109779750D02*
X132313500Y-110692250D01*
G75*
G02*
X132069750Y-110936000I-243750J0D01*
G01*
X131582250Y-110936000D01*
G75*
G02*
X131338500Y-110692250I0J243750D01*
G01*
X131338500Y-109779750D01*
G75*
G02*
X131582250Y-109536000I243750J0D01*
G01*
X132069750Y-109536000D01*
G75*
G02*
X132313500Y-109779750I0J-243750D01*
G01*
G37*
%TD.AperFunction*%
%TD*%
%TO.P,D1,1*%
%TO.N,GND*%
%TA.AperFunction,SMDPad,CuDef*%
G36*
G01*
X132313500Y-113589750D02*
X132313500Y-114502250D01*
G75*
G02*
X132069750Y-114746000I-243750J0D01*
G01*
X131582250Y-114746000D01*
G75*
G02*
X131338500Y-114502250I0J243750D01*
G01*
X131338500Y-113589750D01*
G75*
G02*
X131582250Y-113346000I243750J0D01*
G01*
X132069750Y-113346000D01*
G75*
G02*
X132313500Y-113589750I0J-243750D01*
G01*
G37*
%TD.AperFunction*%
%TO.P,D1,2*%
%TO.N,Net-(D1-Pad2)*%
%TA.AperFunction,SMDPad,CuDef*%
G36*
G01*
X130438500Y-113589750D02*
X130438500Y-114502250D01*
G75*
G02*
X130194750Y-114746000I-243750J0D01*
G01*
X129707250Y-114746000D01*
G75*
G02*
X129463500Y-114502250I0J243750D01*
G01*
X129463500Y-113589750D01*
G75*
G02*
X129707250Y-113346000I243750J0D01*
G01*
X130194750Y-113346000D01*
G75*
G02*
X130438500Y-113589750I0J-243750D01*
G01*
G37*
%TD.AperFunction*%
%TD*%
%TO.P,R1,2*%
%TO.N,GND*%
%TA.AperFunction,SMDPad,CuDef*%
G36*
G01*
X115549500Y-110541750D02*
X115549500Y-111454250D01*
G75*
G02*
X115305750Y-111698000I-243750J0D01*
G01*
X114818250Y-111698000D01*
G75*
G02*
X114574500Y-111454250I0J243750D01*
G01*
X114574500Y-110541750D01*
G75*
G02*
X114818250Y-110298000I243750J0D01*
G01*
X115305750Y-110298000D01*
G75*
G02*
X115549500Y-110541750I0J-243750D01*
G01*
G37*
%TD.AperFunction*%
%TO.P,R1,1*%
%TO.N,/button_input*%
%TA.AperFunction,SMDPad,CuDef*%
G36*
G01*
X117424500Y-110541750D02*
X117424500Y-111454250D01*
G75*
G02*
X117180750Y-111698000I-243750J0D01*
G01*
X116693250Y-111698000D01*
G75*
G02*
X116449500Y-111454250I0J243750D01*
G01*
X116449500Y-110541750D01*
G75*
G02*
X116693250Y-110298000I243750J0D01*
G01*
X117180750Y-110298000D01*
G75*
G02*
X117424500Y-110541750I0J-243750D01*
G01*
G37*
%TD.AperFunction*%
%TD*%
%TO.P,R2,1*%
%TO.N,Net-(J1-Pad11)*%
%TA.AperFunction,SMDPad,CuDef*%
G36*
G01*
X123392250Y-116311500D02*
X122479750Y-116311500D01*
G75*
G02*
X122236000Y-116067750I0J243750D01*
G01*
X122236000Y-115580250D01*
G75*
G02*
X122479750Y-115336500I243750J0D01*
G01*
X123392250Y-115336500D01*
G75*
G02*
X123636000Y-115580250I0J-243750D01*
G01*
X123636000Y-116067750D01*
G75*
G02*
X123392250Y-116311500I-243750J0D01*
G01*
G37*
%TD.AperFunction*%
%TO.P,R2,2*%
%TO.N,/3v3*%
%TA.AperFunction,SMDPad,CuDef*%
G36*
G01*
X123392250Y-114436500D02*
X122479750Y-114436500D01*
G75*
G02*
X122236000Y-114192750I0J243750D01*
G01*
X122236000Y-113705250D01*
G75*
G02*
X122479750Y-113461500I243750J0D01*
G01*
X123392250Y-113461500D01*
G75*
G02*
X123636000Y-113705250I0J-243750D01*
G01*
X123636000Y-114192750D01*
G75*
G02*
X123392250Y-114436500I-243750J0D01*
G01*
G37*
%TD.AperFunction*%
%TD*%
%TO.P,R3,1*%
%TO.N,Net-(J1-Pad7)*%
%TA.AperFunction,SMDPad,CuDef*%
G36*
G01*
X125145500Y-114502250D02*
X125145500Y-113589750D01*
G75*
G02*
X125389250Y-113346000I243750J0D01*
G01*
X125876750Y-113346000D01*
G75*
G02*
X126120500Y-113589750I0J-243750D01*
G01*
X126120500Y-114502250D01*
G75*
G02*
X125876750Y-114746000I-243750J0D01*
G01*
X125389250Y-114746000D01*
G75*
G02*
X125145500Y-114502250I0J243750D01*
G01*
G37*
%TD.AperFunction*%
%TO.P,R3,2*%
%TO.N,Net-(D1-Pad2)*%
%TA.AperFunction,SMDPad,CuDef*%
G36*
G01*
X127020500Y-114502250D02*
X127020500Y-113589750D01*
G75*
G02*
X127264250Y-113346000I243750J0D01*
G01*
X127751750Y-113346000D01*
G75*
G02*
X127995500Y-113589750I0J-243750D01*
G01*
X127995500Y-114502250D01*
G75*
G02*
X127751750Y-114746000I-243750J0D01*
G01*
X127264250Y-114746000D01*
G75*
G02*
X127020500Y-114502250I0J243750D01*
G01*
G37*
%TD.AperFunction*%
%TD*%
D10*
%TO.P,SW1,1*%
%TO.N,/3v3*%
X119329200Y-119862600D03*
X112826800Y-119862600D03*
%TO.P,SW1,2*%
%TO.N,/button_input*%
X119329200Y-115341400D03*
X112826800Y-115341400D03*
%TD*%
D11*
%TO.P,U1,1*%
%TO.N,/3v3*%
X130810000Y-118872000D03*
D12*
%TO.P,U1,2*%
%TO.N,Net-(J1-Pad11)*%
X128270000Y-118872000D03*
%TO.P,U1,3*%
%TO.N,Net-(U1-Pad3)*%
X125730000Y-118872000D03*
%TO.P,U1,4*%
%TO.N,GND*%
X123190000Y-118872000D03*
%TD*%
D11*
%TO.P,J1,1*%
%TO.N,/3v3*%
X113160000Y-106510000D03*
D12*
%TO.P,J1,2*%
%TO.N,Net-(J1-Pad2)*%
X113160000Y-103970000D03*
%TO.P,J1,3*%
%TO.N,Net-(J1-Pad3)*%
X115700000Y-106510000D03*
%TO.P,J1,4*%
%TO.N,Net-(J1-Pad4)*%
X115700000Y-103970000D03*
%TO.P,J1,5*%
%TO.N,Net-(J1-Pad5)*%
X118240000Y-106510000D03*
%TO.P,J1,6*%
%TO.N,GND*%
X118240000Y-103970000D03*
%TO.P,J1,7*%
%TO.N,Net-(J1-Pad7)*%
X120780000Y-106510000D03*
%TO.P,J1,8*%
%TO.N,/button_input*%
X120780000Y-103970000D03*
%TO.P,J1,9*%
%TO.N,GND*%
X123320000Y-106510000D03*
%TO.P,J1,10*%
%TO.N,Net-(J1-Pad10)*%
X123320000Y-103970000D03*
%TO.P,J1,11*%
%TO.N,Net-(J1-Pad11)*%
X125860000Y-106510000D03*
%TO.P,J1,12*%
%TO.N,Net-(J1-Pad12)*%
X125860000Y-103970000D03*
%TO.P,J1,13*%
%TO.N,Net-(J1-Pad13)*%
X128400000Y-106510000D03*
%TO.P,J1,14*%
%TO.N,Net-(J1-Pad14)*%
X128400000Y-103970000D03*
%TO.P,J1,15*%
%TO.N,Net-(J1-Pad15)*%
X130940000Y-106510000D03*
%TO.P,J1,16*%
%TO.N,Net-(J1-Pad16)*%
X130940000Y-103970000D03*
%TD*%
D13*
%TO.N,GND*%
X113284000Y-110998000D03*
D14*
X132080000Y-116332000D03*
%TD*%
D15*
%TO.N,GND*%
X131826000Y-110236000D02*
X131826000Y-114046000D01*
X131826000Y-116078000D02*
X132080000Y-116332000D01*
X131826000Y-114046000D02*
X131826000Y-116078000D01*
X113284000Y-110998000D02*
X115062000Y-110998000D01*
%TO.N,Net-(D1-Pad2)*%
X127508000Y-114046000D02*
X129951000Y-114046000D01*
%TO.N,/3v3*%
X112826800Y-106843200D02*
X113160000Y-106510000D01*
X125730000Y-111155000D02*
X122936000Y-113949000D01*
X125730000Y-110236000D02*
X125730000Y-111155000D01*
X111614799Y-108055201D02*
X113160000Y-106510000D01*
X111614799Y-118650599D02*
X111614799Y-108055201D01*
X112826800Y-119862600D02*
X111614799Y-118650599D01*
X112826800Y-119862600D02*
X119329200Y-119862600D01*
X120541201Y-116343799D02*
X122936000Y-113949000D01*
X120541201Y-118650599D02*
X120541201Y-116343799D01*
X119329200Y-119862600D02*
X120541201Y-118650599D01*
X119638601Y-120172001D02*
X119329200Y-119862600D01*
X129509999Y-120172001D02*
X119638601Y-120172001D01*
X130810000Y-118872000D02*
X129509999Y-120172001D01*
%TO.N,Net-(J1-Pad7)*%
X124985127Y-107810001D02*
X122080001Y-107810001D01*
X126667510Y-109492384D02*
X124985127Y-107810001D01*
X122080001Y-107810001D02*
X120780000Y-106510000D01*
X126667510Y-113011490D02*
X126667510Y-109492384D01*
X125633000Y-114046000D02*
X126667510Y-113011490D01*
%TO.N,/button_input*%
X119440001Y-105309999D02*
X120780000Y-103970000D01*
X119440001Y-108494999D02*
X119440001Y-105309999D01*
X116937000Y-110998000D02*
X119440001Y-108494999D01*
X116937000Y-111231200D02*
X116937000Y-110998000D01*
X112826800Y-115341400D02*
X116937000Y-111231200D01*
X116937000Y-112949200D02*
X119329200Y-115341400D01*
X116937000Y-110998000D02*
X116937000Y-112949200D01*
%TO.N,Net-(J1-Pad11)*%
X128270000Y-118872000D02*
X130788510Y-116353490D01*
X125222000Y-115824000D02*
X122936000Y-115824000D01*
X128270000Y-118872000D02*
X125222000Y-115824000D01*
X128964707Y-107710001D02*
X127060001Y-107710001D01*
X130788510Y-109533804D02*
X128964707Y-107710001D01*
X127060001Y-107710001D02*
X125860000Y-106510000D01*
X130788510Y-116353490D02*
X130788510Y-109533804D01*
%TO.N,Net-(D2-Pad2)*%
X127605000Y-110236000D02*
X129951000Y-110236000D01*
%TD*%
M02*
