M48
; DRILL file {KiCad (5.1.6-0-10_14)} date Saturday, November 28, 2020 at 03:25:44 PM
; FORMAT={-:-/ absolute / inch / decimal}
; #@! TF.CreationDate,2020-11-28T15:25:44+01:00
; #@! TF.GenerationSoftware,Kicad,Pcbnew,(5.1.6-0-10_14)
; #@! TF.FileFunction,Plated,1,2,PTH
FMAT,2
INCH
T1C0.0157
T2C0.0315
T3C0.0394
T4C0.0400
%
G90
G05
T1
X5.2Y-4.58
T2
X4.46Y-4.37
T3
X4.4551Y-4.0933
X4.4551Y-4.1933
X4.5551Y-4.0933
X4.5551Y-4.1933
X4.6551Y-4.0933
X4.6551Y-4.1933
X4.7551Y-4.0933
X4.7551Y-4.1933
X4.8551Y-4.0933
X4.8551Y-4.1933
X4.9551Y-4.0933
X4.9551Y-4.1933
X5.0551Y-4.0933
X5.0551Y-4.1933
X5.1551Y-4.0933
X5.1551Y-4.1933
X4.85Y-4.68
X4.95Y-4.68
X5.05Y-4.68
X5.15Y-4.68
T4
X4.442Y-4.541
X4.442Y-4.719
X4.698Y-4.541
X4.698Y-4.719
T0
M30
