%TF.GenerationSoftware,KiCad,Pcbnew,(5.1.6-0-10_14)*%
%TF.CreationDate,2020-11-28T15:25:20+01:00*%
%TF.ProjectId,Raspberry_Pi_Hat,52617370-6265-4727-9279-5f50695f4861,v1.0*%
%TF.SameCoordinates,Original*%
%TF.FileFunction,Legend,Top*%
%TF.FilePolarity,Positive*%
%FSLAX46Y46*%
G04 Gerber Fmt 4.6, Leading zero omitted, Abs format (unit mm)*
G04 Created by KiCad (PCBNEW (5.1.6-0-10_14)) date 2020-11-28 15:25:20*
%MOMM*%
%LPD*%
G01*
G04 APERTURE LIST*
%ADD10C,0.125000*%
%ADD11C,0.100000*%
%ADD12C,0.120000*%
%ADD13C,0.203200*%
%ADD14C,0.150000*%
G04 APERTURE END LIST*
D10*
X132270523Y-112811714D02*
X132651476Y-112811714D01*
X132270523Y-109001714D02*
X132651476Y-109001714D01*
D11*
X124813190Y-110819333D02*
X124813190Y-111105047D01*
X124813190Y-110962190D02*
X124313190Y-110962190D01*
X124384619Y-111009809D01*
X124432238Y-111057428D01*
X124456047Y-111105047D01*
X124313190Y-110509809D02*
X124313190Y-110462190D01*
X124337000Y-110414571D01*
X124360809Y-110390761D01*
X124408428Y-110366952D01*
X124503666Y-110343142D01*
X124622714Y-110343142D01*
X124717952Y-110366952D01*
X124765571Y-110390761D01*
X124789380Y-110414571D01*
X124813190Y-110462190D01*
X124813190Y-110509809D01*
X124789380Y-110557428D01*
X124765571Y-110581238D01*
X124717952Y-110605047D01*
X124622714Y-110628857D01*
X124503666Y-110628857D01*
X124408428Y-110605047D01*
X124360809Y-110581238D01*
X124337000Y-110557428D01*
X124313190Y-110509809D01*
X124813190Y-110128857D02*
X124313190Y-110128857D01*
X124622714Y-110081238D02*
X124813190Y-109938380D01*
X124479857Y-109938380D02*
X124670333Y-110128857D01*
X124813190Y-109747904D02*
X124813190Y-109628857D01*
X124717952Y-109628857D01*
X124694142Y-109676476D01*
X124646523Y-109724095D01*
X124575095Y-109747904D01*
X124456047Y-109747904D01*
X124384619Y-109724095D01*
X124337000Y-109676476D01*
X124313190Y-109605047D01*
X124313190Y-109509809D01*
X124337000Y-109438380D01*
X124384619Y-109390761D01*
X124456047Y-109366952D01*
X124575095Y-109366952D01*
X124646523Y-109390761D01*
X124694142Y-109438380D01*
X124717952Y-109486000D01*
X124813190Y-109486000D01*
X124813190Y-109366952D01*
X118010809Y-110414666D02*
X118010809Y-110128952D01*
X118010809Y-110271809D02*
X118510809Y-110271809D01*
X118439380Y-110224190D01*
X118391761Y-110176571D01*
X118367952Y-110128952D01*
X118510809Y-110724190D02*
X118510809Y-110771809D01*
X118487000Y-110819428D01*
X118463190Y-110843238D01*
X118415571Y-110867047D01*
X118320333Y-110890857D01*
X118201285Y-110890857D01*
X118106047Y-110867047D01*
X118058428Y-110843238D01*
X118034619Y-110819428D01*
X118010809Y-110771809D01*
X118010809Y-110724190D01*
X118034619Y-110676571D01*
X118058428Y-110652761D01*
X118106047Y-110628952D01*
X118201285Y-110605142D01*
X118320333Y-110605142D01*
X118415571Y-110628952D01*
X118463190Y-110652761D01*
X118487000Y-110676571D01*
X118510809Y-110724190D01*
X118010809Y-111105142D02*
X118510809Y-111105142D01*
X118201285Y-111152761D02*
X118010809Y-111295619D01*
X118344142Y-111295619D02*
X118153666Y-111105142D01*
X118010809Y-111486095D02*
X118010809Y-111605142D01*
X118106047Y-111605142D01*
X118129857Y-111557523D01*
X118177476Y-111509904D01*
X118248904Y-111486095D01*
X118367952Y-111486095D01*
X118439380Y-111509904D01*
X118487000Y-111557523D01*
X118510809Y-111628952D01*
X118510809Y-111724190D01*
X118487000Y-111795619D01*
X118439380Y-111843238D01*
X118367952Y-111867047D01*
X118248904Y-111867047D01*
X118177476Y-111843238D01*
X118129857Y-111795619D01*
X118106047Y-111748000D01*
X118010809Y-111748000D01*
X118010809Y-111867047D01*
D12*
%TO.C,R4*%
X126408922Y-110946000D02*
X126926078Y-110946000D01*
X126408922Y-109526000D02*
X126926078Y-109526000D01*
%TO.C,D2*%
X132573500Y-109276000D02*
X129888500Y-109276000D01*
X132573500Y-111196000D02*
X132573500Y-109276000D01*
X129888500Y-111196000D02*
X132573500Y-111196000D01*
%TO.C,D1*%
X129888500Y-115006000D02*
X132573500Y-115006000D01*
X132573500Y-115006000D02*
X132573500Y-113086000D01*
X132573500Y-113086000D02*
X129888500Y-113086000D01*
%TO.C,R1*%
X116258078Y-110288000D02*
X115740922Y-110288000D01*
X116258078Y-111708000D02*
X115740922Y-111708000D01*
%TO.C,R2*%
X122226000Y-115145078D02*
X122226000Y-114627922D01*
X123646000Y-115145078D02*
X123646000Y-114627922D01*
%TO.C,R3*%
X126311922Y-113336000D02*
X126829078Y-113336000D01*
X126311922Y-114756000D02*
X126829078Y-114756000D01*
D13*
%TO.C,SW1*%
X113919000Y-120650000D02*
X118237000Y-120650000D01*
X118237000Y-114554000D02*
X113919000Y-114554000D01*
X113030000Y-118597680D02*
X113030000Y-116586000D01*
X119126000Y-118628160D02*
X119126000Y-116586000D01*
X117856000Y-117602000D02*
G75*
G03*
X117856000Y-117602000I-1778000J0D01*
G01*
D12*
%TO.C,U1*%
X132140000Y-117542000D02*
X132140000Y-118872000D01*
X130810000Y-117542000D02*
X132140000Y-117542000D01*
X129540000Y-117542000D02*
X129540000Y-120202000D01*
X129540000Y-120202000D02*
X121860000Y-120202000D01*
X129540000Y-117542000D02*
X121860000Y-117542000D01*
X121860000Y-117542000D02*
X121860000Y-120202000D01*
%TO.C,J1*%
X111830000Y-107840000D02*
X111830000Y-106510000D01*
X113160000Y-107840000D02*
X111830000Y-107840000D01*
X111830000Y-105240000D02*
X111830000Y-102640000D01*
X114430000Y-105240000D02*
X111830000Y-105240000D01*
X114430000Y-107840000D02*
X114430000Y-105240000D01*
X111830000Y-102640000D02*
X132270000Y-102640000D01*
X114430000Y-107840000D02*
X132270000Y-107840000D01*
X132270000Y-107840000D02*
X132270000Y-102640000D01*
%TO.C,R4*%
D14*
X126500833Y-109164380D02*
X126167500Y-108688190D01*
X125929404Y-109164380D02*
X125929404Y-108164380D01*
X126310357Y-108164380D01*
X126405595Y-108212000D01*
X126453214Y-108259619D01*
X126500833Y-108354857D01*
X126500833Y-108497714D01*
X126453214Y-108592952D01*
X126405595Y-108640571D01*
X126310357Y-108688190D01*
X125929404Y-108688190D01*
X127357976Y-108497714D02*
X127357976Y-109164380D01*
X127119880Y-108116761D02*
X126881785Y-108831047D01*
X127500833Y-108831047D01*
%TO.C,D2*%
X130198904Y-109164380D02*
X130198904Y-108164380D01*
X130437000Y-108164380D01*
X130579857Y-108212000D01*
X130675095Y-108307238D01*
X130722714Y-108402476D01*
X130770333Y-108592952D01*
X130770333Y-108735809D01*
X130722714Y-108926285D01*
X130675095Y-109021523D01*
X130579857Y-109116761D01*
X130437000Y-109164380D01*
X130198904Y-109164380D01*
X131151285Y-108259619D02*
X131198904Y-108212000D01*
X131294142Y-108164380D01*
X131532238Y-108164380D01*
X131627476Y-108212000D01*
X131675095Y-108259619D01*
X131722714Y-108354857D01*
X131722714Y-108450095D01*
X131675095Y-108592952D01*
X131103666Y-109164380D01*
X131722714Y-109164380D01*
%TO.C,D1*%
X130198904Y-112974380D02*
X130198904Y-111974380D01*
X130437000Y-111974380D01*
X130579857Y-112022000D01*
X130675095Y-112117238D01*
X130722714Y-112212476D01*
X130770333Y-112402952D01*
X130770333Y-112545809D01*
X130722714Y-112736285D01*
X130675095Y-112831523D01*
X130579857Y-112926761D01*
X130437000Y-112974380D01*
X130198904Y-112974380D01*
X131722714Y-112974380D02*
X131151285Y-112974380D01*
X131437000Y-112974380D02*
X131437000Y-111974380D01*
X131341761Y-112117238D01*
X131246523Y-112212476D01*
X131151285Y-112260095D01*
%TO.C,R1*%
X116038333Y-109926380D02*
X115705000Y-109450190D01*
X115466904Y-109926380D02*
X115466904Y-108926380D01*
X115847857Y-108926380D01*
X115943095Y-108974000D01*
X115990714Y-109021619D01*
X116038333Y-109116857D01*
X116038333Y-109259714D01*
X115990714Y-109354952D01*
X115943095Y-109402571D01*
X115847857Y-109450190D01*
X115466904Y-109450190D01*
X116990714Y-109926380D02*
X116419285Y-109926380D01*
X116705000Y-109926380D02*
X116705000Y-108926380D01*
X116609761Y-109069238D01*
X116514523Y-109164476D01*
X116419285Y-109212095D01*
%TO.C,R2*%
X121738380Y-115053166D02*
X121262190Y-115386500D01*
X121738380Y-115624595D02*
X120738380Y-115624595D01*
X120738380Y-115243642D01*
X120786000Y-115148404D01*
X120833619Y-115100785D01*
X120928857Y-115053166D01*
X121071714Y-115053166D01*
X121166952Y-115100785D01*
X121214571Y-115148404D01*
X121262190Y-115243642D01*
X121262190Y-115624595D01*
X120833619Y-114672214D02*
X120786000Y-114624595D01*
X120738380Y-114529357D01*
X120738380Y-114291261D01*
X120786000Y-114196023D01*
X120833619Y-114148404D01*
X120928857Y-114100785D01*
X121024095Y-114100785D01*
X121166952Y-114148404D01*
X121738380Y-114719833D01*
X121738380Y-114100785D01*
%TO.C,R3*%
X126579333Y-112974380D02*
X126246000Y-112498190D01*
X126007904Y-112974380D02*
X126007904Y-111974380D01*
X126388857Y-111974380D01*
X126484095Y-112022000D01*
X126531714Y-112069619D01*
X126579333Y-112164857D01*
X126579333Y-112307714D01*
X126531714Y-112402952D01*
X126484095Y-112450571D01*
X126388857Y-112498190D01*
X126007904Y-112498190D01*
X126912666Y-111974380D02*
X127531714Y-111974380D01*
X127198380Y-112355333D01*
X127341238Y-112355333D01*
X127436476Y-112402952D01*
X127484095Y-112450571D01*
X127531714Y-112545809D01*
X127531714Y-112783904D01*
X127484095Y-112879142D01*
X127436476Y-112926761D01*
X127341238Y-112974380D01*
X127055523Y-112974380D01*
X126960285Y-112926761D01*
X126912666Y-112879142D01*
%TO.C,SW1*%
D11*
X115328000Y-117844857D02*
X115413714Y-117873428D01*
X115556571Y-117873428D01*
X115613714Y-117844857D01*
X115642285Y-117816285D01*
X115670857Y-117759142D01*
X115670857Y-117702000D01*
X115642285Y-117644857D01*
X115613714Y-117616285D01*
X115556571Y-117587714D01*
X115442285Y-117559142D01*
X115385142Y-117530571D01*
X115356571Y-117502000D01*
X115328000Y-117444857D01*
X115328000Y-117387714D01*
X115356571Y-117330571D01*
X115385142Y-117302000D01*
X115442285Y-117273428D01*
X115585142Y-117273428D01*
X115670857Y-117302000D01*
X115870857Y-117273428D02*
X116013714Y-117873428D01*
X116128000Y-117444857D01*
X116242285Y-117873428D01*
X116385142Y-117273428D01*
X116928000Y-117873428D02*
X116585142Y-117873428D01*
X116756571Y-117873428D02*
X116756571Y-117273428D01*
X116699428Y-117359142D01*
X116642285Y-117416285D01*
X116585142Y-117444857D01*
%TO.C,U1*%
X128397047Y-116693190D02*
X128397047Y-117097952D01*
X128420857Y-117145571D01*
X128444666Y-117169380D01*
X128492285Y-117193190D01*
X128587523Y-117193190D01*
X128635142Y-117169380D01*
X128658952Y-117145571D01*
X128682761Y-117097952D01*
X128682761Y-116693190D01*
X129182761Y-117193190D02*
X128897047Y-117193190D01*
X129039904Y-117193190D02*
X129039904Y-116693190D01*
X128992285Y-116764619D01*
X128944666Y-116812238D01*
X128897047Y-116836047D01*
X121086190Y-119931523D02*
X120586190Y-119931523D01*
X120586190Y-119812476D01*
X120610000Y-119741047D01*
X120657619Y-119693428D01*
X120705238Y-119669619D01*
X120800476Y-119645809D01*
X120871904Y-119645809D01*
X120967142Y-119669619D01*
X121014761Y-119693428D01*
X121062380Y-119741047D01*
X121086190Y-119812476D01*
X121086190Y-119931523D01*
X121086190Y-119431523D02*
X120586190Y-119431523D01*
X120824285Y-119431523D02*
X120824285Y-119145809D01*
X121086190Y-119145809D02*
X120586190Y-119145809D01*
X120586190Y-118979142D02*
X120586190Y-118693428D01*
X121086190Y-118836285D02*
X120586190Y-118836285D01*
X120633809Y-118550571D02*
X120610000Y-118526761D01*
X120586190Y-118479142D01*
X120586190Y-118360095D01*
X120610000Y-118312476D01*
X120633809Y-118288666D01*
X120681428Y-118264857D01*
X120729047Y-118264857D01*
X120800476Y-118288666D01*
X121086190Y-118574380D01*
X121086190Y-118264857D01*
X120633809Y-118074380D02*
X120610000Y-118050571D01*
X120586190Y-118002952D01*
X120586190Y-117883904D01*
X120610000Y-117836285D01*
X120633809Y-117812476D01*
X120681428Y-117788666D01*
X120729047Y-117788666D01*
X120800476Y-117812476D01*
X121086190Y-118098190D01*
X121086190Y-117788666D01*
%TO.C,J1*%
D14*
X110282380Y-105573333D02*
X110996666Y-105573333D01*
X111139523Y-105620952D01*
X111234761Y-105716190D01*
X111282380Y-105859047D01*
X111282380Y-105954285D01*
X111282380Y-104573333D02*
X111282380Y-105144761D01*
X111282380Y-104859047D02*
X110282380Y-104859047D01*
X110425238Y-104954285D01*
X110520476Y-105049523D01*
X110568095Y-105144761D01*
%TD*%
M02*
