%TF.GenerationSoftware,KiCad,Pcbnew,(5.1.6-0-10_14)*%
%TF.CreationDate,2020-11-28T15:25:20+01:00*%
%TF.ProjectId,Raspberry_Pi_Hat,52617370-6265-4727-9279-5f50695f4861,v1.0*%
%TF.SameCoordinates,Original*%
%TF.FileFunction,Copper,L2,Bot*%
%TF.FilePolarity,Positive*%
%FSLAX46Y46*%
G04 Gerber Fmt 4.6, Leading zero omitted, Abs format (unit mm)*
G04 Created by KiCad (PCBNEW (5.1.6-0-10_14)) date 2020-11-28 15:25:20*
%MOMM*%
%LPD*%
G01*
G04 APERTURE LIST*
%TA.AperFunction,ComponentPad*%
%ADD10O,1.524000X1.524000*%
%TD*%
%TA.AperFunction,ComponentPad*%
%ADD11R,1.700000X1.700000*%
%TD*%
%TA.AperFunction,ComponentPad*%
%ADD12O,1.700000X1.700000*%
%TD*%
%TA.AperFunction,ViaPad*%
%ADD13C,1.000000*%
%TD*%
%TA.AperFunction,ViaPad*%
%ADD14C,0.800000*%
%TD*%
%TA.AperFunction,Conductor*%
%ADD15C,0.254000*%
%TD*%
G04 APERTURE END LIST*
D10*
%TO.P,SW1,1*%
%TO.N,/3v3*%
X119329200Y-119862600D03*
X112826800Y-119862600D03*
%TO.P,SW1,2*%
%TO.N,/button_input*%
X119329200Y-115341400D03*
X112826800Y-115341400D03*
%TD*%
D11*
%TO.P,U1,1*%
%TO.N,/3v3*%
X130810000Y-118872000D03*
D12*
%TO.P,U1,2*%
%TO.N,Net-(J1-Pad11)*%
X128270000Y-118872000D03*
%TO.P,U1,3*%
%TO.N,Net-(U1-Pad3)*%
X125730000Y-118872000D03*
%TO.P,U1,4*%
%TO.N,GND*%
X123190000Y-118872000D03*
%TD*%
D11*
%TO.P,J1,1*%
%TO.N,/3v3*%
X113160000Y-106510000D03*
D12*
%TO.P,J1,2*%
%TO.N,Net-(J1-Pad2)*%
X113160000Y-103970000D03*
%TO.P,J1,3*%
%TO.N,Net-(J1-Pad3)*%
X115700000Y-106510000D03*
%TO.P,J1,4*%
%TO.N,Net-(J1-Pad4)*%
X115700000Y-103970000D03*
%TO.P,J1,5*%
%TO.N,Net-(J1-Pad5)*%
X118240000Y-106510000D03*
%TO.P,J1,6*%
%TO.N,GND*%
X118240000Y-103970000D03*
%TO.P,J1,7*%
%TO.N,Net-(J1-Pad7)*%
X120780000Y-106510000D03*
%TO.P,J1,8*%
%TO.N,/button_input*%
X120780000Y-103970000D03*
%TO.P,J1,9*%
%TO.N,GND*%
X123320000Y-106510000D03*
%TO.P,J1,10*%
%TO.N,Net-(J1-Pad10)*%
X123320000Y-103970000D03*
%TO.P,J1,11*%
%TO.N,Net-(J1-Pad11)*%
X125860000Y-106510000D03*
%TO.P,J1,12*%
%TO.N,Net-(J1-Pad12)*%
X125860000Y-103970000D03*
%TO.P,J1,13*%
%TO.N,Net-(J1-Pad13)*%
X128400000Y-106510000D03*
%TO.P,J1,14*%
%TO.N,Net-(J1-Pad14)*%
X128400000Y-103970000D03*
%TO.P,J1,15*%
%TO.N,Net-(J1-Pad15)*%
X130940000Y-106510000D03*
%TO.P,J1,16*%
%TO.N,Net-(J1-Pad16)*%
X130940000Y-103970000D03*
%TD*%
D13*
%TO.N,GND*%
X113284000Y-110998000D03*
D14*
X132080000Y-116332000D03*
%TD*%
D15*
%TO.N,GND*%
G36*
X132596893Y-102317078D02*
G01*
X132605452Y-102319662D01*
X132613343Y-102323858D01*
X132620268Y-102329506D01*
X132625964Y-102336391D01*
X132630215Y-102344253D01*
X132632859Y-102352794D01*
X132636000Y-102382678D01*
X132636001Y-121135487D01*
X132632921Y-121166896D01*
X132630337Y-121175454D01*
X132626144Y-121183341D01*
X132620494Y-121190268D01*
X132613609Y-121195964D01*
X132605747Y-121200215D01*
X132597206Y-121202859D01*
X132567322Y-121206000D01*
X111528503Y-121206000D01*
X111497104Y-121202921D01*
X111488546Y-121200337D01*
X111480659Y-121196144D01*
X111473732Y-121190494D01*
X111468036Y-121183609D01*
X111463785Y-121175747D01*
X111461141Y-121167206D01*
X111458000Y-121137322D01*
X111458000Y-119744706D01*
X111629800Y-119744706D01*
X111629800Y-119980494D01*
X111675800Y-120211752D01*
X111766032Y-120429592D01*
X111897029Y-120625643D01*
X112063757Y-120792371D01*
X112259808Y-120923368D01*
X112477648Y-121013600D01*
X112708906Y-121059600D01*
X112944694Y-121059600D01*
X113175952Y-121013600D01*
X113393792Y-120923368D01*
X113589843Y-120792371D01*
X113756571Y-120625643D01*
X113887568Y-120429592D01*
X113977800Y-120211752D01*
X114023800Y-119980494D01*
X114023800Y-119744706D01*
X118132200Y-119744706D01*
X118132200Y-119980494D01*
X118178200Y-120211752D01*
X118268432Y-120429592D01*
X118399429Y-120625643D01*
X118566157Y-120792371D01*
X118762208Y-120923368D01*
X118980048Y-121013600D01*
X119211306Y-121059600D01*
X119447094Y-121059600D01*
X119678352Y-121013600D01*
X119896192Y-120923368D01*
X120092243Y-120792371D01*
X120258971Y-120625643D01*
X120389968Y-120429592D01*
X120480200Y-120211752D01*
X120526200Y-119980494D01*
X120526200Y-119744706D01*
X120480200Y-119513448D01*
X120389968Y-119295608D01*
X120302284Y-119164379D01*
X121836210Y-119164379D01*
X121919263Y-119422872D01*
X122051150Y-119660196D01*
X122226802Y-119867230D01*
X122439469Y-120036018D01*
X122680979Y-120160073D01*
X122897621Y-120225787D01*
X123113000Y-120120879D01*
X123113000Y-118949000D01*
X121940889Y-118949000D01*
X121836210Y-119164379D01*
X120302284Y-119164379D01*
X120258971Y-119099557D01*
X120092243Y-118932829D01*
X119896192Y-118801832D01*
X119678352Y-118711600D01*
X119447094Y-118665600D01*
X119211306Y-118665600D01*
X118980048Y-118711600D01*
X118762208Y-118801832D01*
X118566157Y-118932829D01*
X118399429Y-119099557D01*
X118268432Y-119295608D01*
X118178200Y-119513448D01*
X118132200Y-119744706D01*
X114023800Y-119744706D01*
X113977800Y-119513448D01*
X113887568Y-119295608D01*
X113756571Y-119099557D01*
X113589843Y-118932829D01*
X113393792Y-118801832D01*
X113175952Y-118711600D01*
X112944694Y-118665600D01*
X112708906Y-118665600D01*
X112477648Y-118711600D01*
X112259808Y-118801832D01*
X112063757Y-118932829D01*
X111897029Y-119099557D01*
X111766032Y-119295608D01*
X111675800Y-119513448D01*
X111629800Y-119744706D01*
X111458000Y-119744706D01*
X111458000Y-118579621D01*
X121836210Y-118579621D01*
X121940889Y-118795000D01*
X123113000Y-118795000D01*
X123113000Y-117623121D01*
X123267000Y-117623121D01*
X123267000Y-118795000D01*
X123287000Y-118795000D01*
X123287000Y-118949000D01*
X123267000Y-118949000D01*
X123267000Y-120120879D01*
X123482379Y-120225787D01*
X123699021Y-120160073D01*
X123940531Y-120036018D01*
X124153198Y-119867230D01*
X124328850Y-119660196D01*
X124460737Y-119422872D01*
X124507289Y-119277984D01*
X124591247Y-119480676D01*
X124731875Y-119691140D01*
X124910860Y-119870125D01*
X125121324Y-120010753D01*
X125355179Y-120107619D01*
X125603439Y-120157000D01*
X125856561Y-120157000D01*
X126104821Y-120107619D01*
X126338676Y-120010753D01*
X126549140Y-119870125D01*
X126728125Y-119691140D01*
X126868753Y-119480676D01*
X126965619Y-119246821D01*
X127000000Y-119073973D01*
X127034381Y-119246821D01*
X127131247Y-119480676D01*
X127271875Y-119691140D01*
X127450860Y-119870125D01*
X127661324Y-120010753D01*
X127895179Y-120107619D01*
X128143439Y-120157000D01*
X128396561Y-120157000D01*
X128644821Y-120107619D01*
X128878676Y-120010753D01*
X129089140Y-119870125D01*
X129268125Y-119691140D01*
X129408753Y-119480676D01*
X129505619Y-119246821D01*
X129522896Y-119159962D01*
X129522896Y-119722000D01*
X129531295Y-119807275D01*
X129556169Y-119889272D01*
X129596561Y-119964842D01*
X129650921Y-120031079D01*
X129717158Y-120085439D01*
X129792728Y-120125831D01*
X129874725Y-120150705D01*
X129960000Y-120159104D01*
X131660000Y-120159104D01*
X131745275Y-120150705D01*
X131827272Y-120125831D01*
X131902842Y-120085439D01*
X131969079Y-120031079D01*
X132023439Y-119964842D01*
X132063831Y-119889272D01*
X132088705Y-119807275D01*
X132097104Y-119722000D01*
X132097104Y-118022000D01*
X132088705Y-117936725D01*
X132063831Y-117854728D01*
X132023439Y-117779158D01*
X131969079Y-117712921D01*
X131902842Y-117658561D01*
X131827272Y-117618169D01*
X131745275Y-117593295D01*
X131660000Y-117584896D01*
X129960000Y-117584896D01*
X129874725Y-117593295D01*
X129792728Y-117618169D01*
X129717158Y-117658561D01*
X129650921Y-117712921D01*
X129596561Y-117779158D01*
X129556169Y-117854728D01*
X129531295Y-117936725D01*
X129522896Y-118022000D01*
X129522896Y-118584038D01*
X129505619Y-118497179D01*
X129408753Y-118263324D01*
X129268125Y-118052860D01*
X129089140Y-117873875D01*
X128878676Y-117733247D01*
X128644821Y-117636381D01*
X128396561Y-117587000D01*
X128143439Y-117587000D01*
X127895179Y-117636381D01*
X127661324Y-117733247D01*
X127450860Y-117873875D01*
X127271875Y-118052860D01*
X127131247Y-118263324D01*
X127034381Y-118497179D01*
X127000000Y-118670027D01*
X126965619Y-118497179D01*
X126868753Y-118263324D01*
X126728125Y-118052860D01*
X126549140Y-117873875D01*
X126338676Y-117733247D01*
X126104821Y-117636381D01*
X125856561Y-117587000D01*
X125603439Y-117587000D01*
X125355179Y-117636381D01*
X125121324Y-117733247D01*
X124910860Y-117873875D01*
X124731875Y-118052860D01*
X124591247Y-118263324D01*
X124507289Y-118466016D01*
X124460737Y-118321128D01*
X124328850Y-118083804D01*
X124153198Y-117876770D01*
X123940531Y-117707982D01*
X123699021Y-117583927D01*
X123482379Y-117518213D01*
X123267000Y-117623121D01*
X123113000Y-117623121D01*
X122897621Y-117518213D01*
X122680979Y-117583927D01*
X122439469Y-117707982D01*
X122226802Y-117876770D01*
X122051150Y-118083804D01*
X121919263Y-118321128D01*
X121836210Y-118579621D01*
X111458000Y-118579621D01*
X111458000Y-115223506D01*
X111629800Y-115223506D01*
X111629800Y-115459294D01*
X111675800Y-115690552D01*
X111766032Y-115908392D01*
X111897029Y-116104443D01*
X112063757Y-116271171D01*
X112259808Y-116402168D01*
X112477648Y-116492400D01*
X112708906Y-116538400D01*
X112944694Y-116538400D01*
X113175952Y-116492400D01*
X113393792Y-116402168D01*
X113589843Y-116271171D01*
X113756571Y-116104443D01*
X113887568Y-115908392D01*
X113977800Y-115690552D01*
X114023800Y-115459294D01*
X114023800Y-115223506D01*
X118132200Y-115223506D01*
X118132200Y-115459294D01*
X118178200Y-115690552D01*
X118268432Y-115908392D01*
X118399429Y-116104443D01*
X118566157Y-116271171D01*
X118762208Y-116402168D01*
X118980048Y-116492400D01*
X119211306Y-116538400D01*
X119447094Y-116538400D01*
X119678352Y-116492400D01*
X119896192Y-116402168D01*
X120092243Y-116271171D01*
X120258971Y-116104443D01*
X120389968Y-115908392D01*
X120480200Y-115690552D01*
X120526200Y-115459294D01*
X120526200Y-115223506D01*
X120480200Y-114992248D01*
X120389968Y-114774408D01*
X120258971Y-114578357D01*
X120092243Y-114411629D01*
X119896192Y-114280632D01*
X119678352Y-114190400D01*
X119447094Y-114144400D01*
X119211306Y-114144400D01*
X118980048Y-114190400D01*
X118762208Y-114280632D01*
X118566157Y-114411629D01*
X118399429Y-114578357D01*
X118268432Y-114774408D01*
X118178200Y-114992248D01*
X118132200Y-115223506D01*
X114023800Y-115223506D01*
X113977800Y-114992248D01*
X113887568Y-114774408D01*
X113756571Y-114578357D01*
X113589843Y-114411629D01*
X113393792Y-114280632D01*
X113175952Y-114190400D01*
X112944694Y-114144400D01*
X112708906Y-114144400D01*
X112477648Y-114190400D01*
X112259808Y-114280632D01*
X112063757Y-114411629D01*
X111897029Y-114578357D01*
X111766032Y-114774408D01*
X111675800Y-114992248D01*
X111629800Y-115223506D01*
X111458000Y-115223506D01*
X111458000Y-109197410D01*
X111456073Y-109177841D01*
X111456094Y-109174761D01*
X111455468Y-109168368D01*
X111445104Y-109069767D01*
X111436724Y-109028944D01*
X111428908Y-108987974D01*
X111427052Y-108981825D01*
X111397734Y-108887115D01*
X111381572Y-108848668D01*
X111365960Y-108810028D01*
X111362945Y-108804356D01*
X111315790Y-108717144D01*
X111292467Y-108682566D01*
X111269646Y-108647692D01*
X111265587Y-108642715D01*
X111202390Y-108566323D01*
X111172843Y-108536982D01*
X111143637Y-108507158D01*
X111138688Y-108503064D01*
X111061857Y-108440402D01*
X111027131Y-108417330D01*
X110992729Y-108393775D01*
X110987079Y-108390720D01*
X110899540Y-108344175D01*
X110861012Y-108328295D01*
X110822675Y-108311864D01*
X110816539Y-108309964D01*
X110721626Y-108281308D01*
X110680760Y-108273217D01*
X110639948Y-108264542D01*
X110633560Y-108263870D01*
X110534889Y-108254195D01*
X110534875Y-108254195D01*
X110512590Y-108252000D01*
X105940503Y-108252000D01*
X105909104Y-108248921D01*
X105900546Y-108246337D01*
X105892659Y-108242144D01*
X105885732Y-108236494D01*
X105880036Y-108229609D01*
X105875785Y-108221747D01*
X105873141Y-108213206D01*
X105870000Y-108183322D01*
X105870000Y-106043491D01*
X105923796Y-106173366D01*
X106139439Y-106496099D01*
X106413901Y-106770561D01*
X106736634Y-106986204D01*
X107095236Y-107134742D01*
X107475926Y-107210466D01*
X107864074Y-107210466D01*
X108244764Y-107134742D01*
X108603366Y-106986204D01*
X108926099Y-106770561D01*
X109200561Y-106496099D01*
X109416204Y-106173366D01*
X109564742Y-105814764D01*
X109595526Y-105660000D01*
X111872896Y-105660000D01*
X111872896Y-107360000D01*
X111881295Y-107445275D01*
X111906169Y-107527272D01*
X111946561Y-107602842D01*
X112000921Y-107669079D01*
X112067158Y-107723439D01*
X112142728Y-107763831D01*
X112224725Y-107788705D01*
X112310000Y-107797104D01*
X114010000Y-107797104D01*
X114095275Y-107788705D01*
X114177272Y-107763831D01*
X114252842Y-107723439D01*
X114319079Y-107669079D01*
X114373439Y-107602842D01*
X114413831Y-107527272D01*
X114438705Y-107445275D01*
X114447104Y-107360000D01*
X114447104Y-106797962D01*
X114464381Y-106884821D01*
X114561247Y-107118676D01*
X114701875Y-107329140D01*
X114880860Y-107508125D01*
X115091324Y-107648753D01*
X115325179Y-107745619D01*
X115573439Y-107795000D01*
X115826561Y-107795000D01*
X116074821Y-107745619D01*
X116308676Y-107648753D01*
X116519140Y-107508125D01*
X116698125Y-107329140D01*
X116838753Y-107118676D01*
X116935619Y-106884821D01*
X116970000Y-106711973D01*
X117004381Y-106884821D01*
X117101247Y-107118676D01*
X117241875Y-107329140D01*
X117420860Y-107508125D01*
X117631324Y-107648753D01*
X117865179Y-107745619D01*
X118113439Y-107795000D01*
X118366561Y-107795000D01*
X118614821Y-107745619D01*
X118848676Y-107648753D01*
X119059140Y-107508125D01*
X119238125Y-107329140D01*
X119378753Y-107118676D01*
X119475619Y-106884821D01*
X119510000Y-106711973D01*
X119544381Y-106884821D01*
X119641247Y-107118676D01*
X119781875Y-107329140D01*
X119960860Y-107508125D01*
X120171324Y-107648753D01*
X120405179Y-107745619D01*
X120653439Y-107795000D01*
X120906561Y-107795000D01*
X121154821Y-107745619D01*
X121388676Y-107648753D01*
X121599140Y-107508125D01*
X121778125Y-107329140D01*
X121918753Y-107118676D01*
X122002711Y-106915984D01*
X122049263Y-107060872D01*
X122181150Y-107298196D01*
X122356802Y-107505230D01*
X122569469Y-107674018D01*
X122810979Y-107798073D01*
X123027621Y-107863787D01*
X123243000Y-107758879D01*
X123243000Y-106587000D01*
X123223000Y-106587000D01*
X123223000Y-106433000D01*
X123243000Y-106433000D01*
X123243000Y-106413000D01*
X123397000Y-106413000D01*
X123397000Y-106433000D01*
X123417000Y-106433000D01*
X123417000Y-106587000D01*
X123397000Y-106587000D01*
X123397000Y-107758879D01*
X123612379Y-107863787D01*
X123829021Y-107798073D01*
X124070531Y-107674018D01*
X124283198Y-107505230D01*
X124458850Y-107298196D01*
X124590737Y-107060872D01*
X124637289Y-106915984D01*
X124721247Y-107118676D01*
X124861875Y-107329140D01*
X125040860Y-107508125D01*
X125251324Y-107648753D01*
X125485179Y-107745619D01*
X125733439Y-107795000D01*
X125986561Y-107795000D01*
X126234821Y-107745619D01*
X126468676Y-107648753D01*
X126679140Y-107508125D01*
X126858125Y-107329140D01*
X126998753Y-107118676D01*
X127095619Y-106884821D01*
X127130000Y-106711973D01*
X127164381Y-106884821D01*
X127261247Y-107118676D01*
X127401875Y-107329140D01*
X127580860Y-107508125D01*
X127791324Y-107648753D01*
X128025179Y-107745619D01*
X128273439Y-107795000D01*
X128526561Y-107795000D01*
X128774821Y-107745619D01*
X129008676Y-107648753D01*
X129219140Y-107508125D01*
X129398125Y-107329140D01*
X129538753Y-107118676D01*
X129635619Y-106884821D01*
X129670000Y-106711973D01*
X129704381Y-106884821D01*
X129801247Y-107118676D01*
X129941875Y-107329140D01*
X130120860Y-107508125D01*
X130331324Y-107648753D01*
X130565179Y-107745619D01*
X130813439Y-107795000D01*
X131066561Y-107795000D01*
X131314821Y-107745619D01*
X131548676Y-107648753D01*
X131759140Y-107508125D01*
X131938125Y-107329140D01*
X132078753Y-107118676D01*
X132175619Y-106884821D01*
X132225000Y-106636561D01*
X132225000Y-106383439D01*
X132175619Y-106135179D01*
X132078753Y-105901324D01*
X131938125Y-105690860D01*
X131759140Y-105511875D01*
X131548676Y-105371247D01*
X131314821Y-105274381D01*
X131141973Y-105240000D01*
X131314821Y-105205619D01*
X131548676Y-105108753D01*
X131759140Y-104968125D01*
X131938125Y-104789140D01*
X132078753Y-104578676D01*
X132175619Y-104344821D01*
X132225000Y-104096561D01*
X132225000Y-103843439D01*
X132175619Y-103595179D01*
X132078753Y-103361324D01*
X131938125Y-103150860D01*
X131759140Y-102971875D01*
X131548676Y-102831247D01*
X131314821Y-102734381D01*
X131066561Y-102685000D01*
X130813439Y-102685000D01*
X130565179Y-102734381D01*
X130331324Y-102831247D01*
X130120860Y-102971875D01*
X129941875Y-103150860D01*
X129801247Y-103361324D01*
X129704381Y-103595179D01*
X129670000Y-103768027D01*
X129635619Y-103595179D01*
X129538753Y-103361324D01*
X129398125Y-103150860D01*
X129219140Y-102971875D01*
X129008676Y-102831247D01*
X128774821Y-102734381D01*
X128526561Y-102685000D01*
X128273439Y-102685000D01*
X128025179Y-102734381D01*
X127791324Y-102831247D01*
X127580860Y-102971875D01*
X127401875Y-103150860D01*
X127261247Y-103361324D01*
X127164381Y-103595179D01*
X127130000Y-103768027D01*
X127095619Y-103595179D01*
X126998753Y-103361324D01*
X126858125Y-103150860D01*
X126679140Y-102971875D01*
X126468676Y-102831247D01*
X126234821Y-102734381D01*
X125986561Y-102685000D01*
X125733439Y-102685000D01*
X125485179Y-102734381D01*
X125251324Y-102831247D01*
X125040860Y-102971875D01*
X124861875Y-103150860D01*
X124721247Y-103361324D01*
X124624381Y-103595179D01*
X124590000Y-103768027D01*
X124555619Y-103595179D01*
X124458753Y-103361324D01*
X124318125Y-103150860D01*
X124139140Y-102971875D01*
X123928676Y-102831247D01*
X123694821Y-102734381D01*
X123446561Y-102685000D01*
X123193439Y-102685000D01*
X122945179Y-102734381D01*
X122711324Y-102831247D01*
X122500860Y-102971875D01*
X122321875Y-103150860D01*
X122181247Y-103361324D01*
X122084381Y-103595179D01*
X122050000Y-103768027D01*
X122015619Y-103595179D01*
X121918753Y-103361324D01*
X121778125Y-103150860D01*
X121599140Y-102971875D01*
X121388676Y-102831247D01*
X121154821Y-102734381D01*
X120906561Y-102685000D01*
X120653439Y-102685000D01*
X120405179Y-102734381D01*
X120171324Y-102831247D01*
X119960860Y-102971875D01*
X119781875Y-103150860D01*
X119641247Y-103361324D01*
X119557289Y-103564016D01*
X119510737Y-103419128D01*
X119378850Y-103181804D01*
X119203198Y-102974770D01*
X118990531Y-102805982D01*
X118749021Y-102681927D01*
X118532379Y-102616213D01*
X118317000Y-102721121D01*
X118317000Y-103893000D01*
X118337000Y-103893000D01*
X118337000Y-104047000D01*
X118317000Y-104047000D01*
X118317000Y-104067000D01*
X118163000Y-104067000D01*
X118163000Y-104047000D01*
X118143000Y-104047000D01*
X118143000Y-103893000D01*
X118163000Y-103893000D01*
X118163000Y-102721121D01*
X117947621Y-102616213D01*
X117730979Y-102681927D01*
X117489469Y-102805982D01*
X117276802Y-102974770D01*
X117101150Y-103181804D01*
X116969263Y-103419128D01*
X116922711Y-103564016D01*
X116838753Y-103361324D01*
X116698125Y-103150860D01*
X116519140Y-102971875D01*
X116308676Y-102831247D01*
X116074821Y-102734381D01*
X115826561Y-102685000D01*
X115573439Y-102685000D01*
X115325179Y-102734381D01*
X115091324Y-102831247D01*
X114880860Y-102971875D01*
X114701875Y-103150860D01*
X114561247Y-103361324D01*
X114464381Y-103595179D01*
X114430000Y-103768027D01*
X114395619Y-103595179D01*
X114298753Y-103361324D01*
X114158125Y-103150860D01*
X113979140Y-102971875D01*
X113768676Y-102831247D01*
X113534821Y-102734381D01*
X113286561Y-102685000D01*
X113033439Y-102685000D01*
X112785179Y-102734381D01*
X112551324Y-102831247D01*
X112340860Y-102971875D01*
X112161875Y-103150860D01*
X112021247Y-103361324D01*
X111924381Y-103595179D01*
X111875000Y-103843439D01*
X111875000Y-104096561D01*
X111924381Y-104344821D01*
X112021247Y-104578676D01*
X112161875Y-104789140D01*
X112340860Y-104968125D01*
X112551324Y-105108753D01*
X112785179Y-105205619D01*
X112872038Y-105222896D01*
X112310000Y-105222896D01*
X112224725Y-105231295D01*
X112142728Y-105256169D01*
X112067158Y-105296561D01*
X112000921Y-105350921D01*
X111946561Y-105417158D01*
X111906169Y-105492728D01*
X111881295Y-105574725D01*
X111872896Y-105660000D01*
X109595526Y-105660000D01*
X109640466Y-105434074D01*
X109640466Y-105045926D01*
X109564742Y-104665236D01*
X109416204Y-104306634D01*
X109200561Y-103983901D01*
X108926099Y-103709439D01*
X108603366Y-103493796D01*
X108244764Y-103345258D01*
X107864074Y-103269534D01*
X107475926Y-103269534D01*
X107095236Y-103345258D01*
X106736634Y-103493796D01*
X106413901Y-103709439D01*
X106139439Y-103983901D01*
X105923796Y-104306634D01*
X105870000Y-104436509D01*
X105870000Y-102384501D01*
X105873078Y-102353107D01*
X105875662Y-102344548D01*
X105879858Y-102336657D01*
X105885506Y-102329732D01*
X105892391Y-102324036D01*
X105900253Y-102319785D01*
X105908794Y-102317141D01*
X105938678Y-102314000D01*
X132565499Y-102314000D01*
X132596893Y-102317078D01*
G37*
X132596893Y-102317078D02*
X132605452Y-102319662D01*
X132613343Y-102323858D01*
X132620268Y-102329506D01*
X132625964Y-102336391D01*
X132630215Y-102344253D01*
X132632859Y-102352794D01*
X132636000Y-102382678D01*
X132636001Y-121135487D01*
X132632921Y-121166896D01*
X132630337Y-121175454D01*
X132626144Y-121183341D01*
X132620494Y-121190268D01*
X132613609Y-121195964D01*
X132605747Y-121200215D01*
X132597206Y-121202859D01*
X132567322Y-121206000D01*
X111528503Y-121206000D01*
X111497104Y-121202921D01*
X111488546Y-121200337D01*
X111480659Y-121196144D01*
X111473732Y-121190494D01*
X111468036Y-121183609D01*
X111463785Y-121175747D01*
X111461141Y-121167206D01*
X111458000Y-121137322D01*
X111458000Y-119744706D01*
X111629800Y-119744706D01*
X111629800Y-119980494D01*
X111675800Y-120211752D01*
X111766032Y-120429592D01*
X111897029Y-120625643D01*
X112063757Y-120792371D01*
X112259808Y-120923368D01*
X112477648Y-121013600D01*
X112708906Y-121059600D01*
X112944694Y-121059600D01*
X113175952Y-121013600D01*
X113393792Y-120923368D01*
X113589843Y-120792371D01*
X113756571Y-120625643D01*
X113887568Y-120429592D01*
X113977800Y-120211752D01*
X114023800Y-119980494D01*
X114023800Y-119744706D01*
X118132200Y-119744706D01*
X118132200Y-119980494D01*
X118178200Y-120211752D01*
X118268432Y-120429592D01*
X118399429Y-120625643D01*
X118566157Y-120792371D01*
X118762208Y-120923368D01*
X118980048Y-121013600D01*
X119211306Y-121059600D01*
X119447094Y-121059600D01*
X119678352Y-121013600D01*
X119896192Y-120923368D01*
X120092243Y-120792371D01*
X120258971Y-120625643D01*
X120389968Y-120429592D01*
X120480200Y-120211752D01*
X120526200Y-119980494D01*
X120526200Y-119744706D01*
X120480200Y-119513448D01*
X120389968Y-119295608D01*
X120302284Y-119164379D01*
X121836210Y-119164379D01*
X121919263Y-119422872D01*
X122051150Y-119660196D01*
X122226802Y-119867230D01*
X122439469Y-120036018D01*
X122680979Y-120160073D01*
X122897621Y-120225787D01*
X123113000Y-120120879D01*
X123113000Y-118949000D01*
X121940889Y-118949000D01*
X121836210Y-119164379D01*
X120302284Y-119164379D01*
X120258971Y-119099557D01*
X120092243Y-118932829D01*
X119896192Y-118801832D01*
X119678352Y-118711600D01*
X119447094Y-118665600D01*
X119211306Y-118665600D01*
X118980048Y-118711600D01*
X118762208Y-118801832D01*
X118566157Y-118932829D01*
X118399429Y-119099557D01*
X118268432Y-119295608D01*
X118178200Y-119513448D01*
X118132200Y-119744706D01*
X114023800Y-119744706D01*
X113977800Y-119513448D01*
X113887568Y-119295608D01*
X113756571Y-119099557D01*
X113589843Y-118932829D01*
X113393792Y-118801832D01*
X113175952Y-118711600D01*
X112944694Y-118665600D01*
X112708906Y-118665600D01*
X112477648Y-118711600D01*
X112259808Y-118801832D01*
X112063757Y-118932829D01*
X111897029Y-119099557D01*
X111766032Y-119295608D01*
X111675800Y-119513448D01*
X111629800Y-119744706D01*
X111458000Y-119744706D01*
X111458000Y-118579621D01*
X121836210Y-118579621D01*
X121940889Y-118795000D01*
X123113000Y-118795000D01*
X123113000Y-117623121D01*
X123267000Y-117623121D01*
X123267000Y-118795000D01*
X123287000Y-118795000D01*
X123287000Y-118949000D01*
X123267000Y-118949000D01*
X123267000Y-120120879D01*
X123482379Y-120225787D01*
X123699021Y-120160073D01*
X123940531Y-120036018D01*
X124153198Y-119867230D01*
X124328850Y-119660196D01*
X124460737Y-119422872D01*
X124507289Y-119277984D01*
X124591247Y-119480676D01*
X124731875Y-119691140D01*
X124910860Y-119870125D01*
X125121324Y-120010753D01*
X125355179Y-120107619D01*
X125603439Y-120157000D01*
X125856561Y-120157000D01*
X126104821Y-120107619D01*
X126338676Y-120010753D01*
X126549140Y-119870125D01*
X126728125Y-119691140D01*
X126868753Y-119480676D01*
X126965619Y-119246821D01*
X127000000Y-119073973D01*
X127034381Y-119246821D01*
X127131247Y-119480676D01*
X127271875Y-119691140D01*
X127450860Y-119870125D01*
X127661324Y-120010753D01*
X127895179Y-120107619D01*
X128143439Y-120157000D01*
X128396561Y-120157000D01*
X128644821Y-120107619D01*
X128878676Y-120010753D01*
X129089140Y-119870125D01*
X129268125Y-119691140D01*
X129408753Y-119480676D01*
X129505619Y-119246821D01*
X129522896Y-119159962D01*
X129522896Y-119722000D01*
X129531295Y-119807275D01*
X129556169Y-119889272D01*
X129596561Y-119964842D01*
X129650921Y-120031079D01*
X129717158Y-120085439D01*
X129792728Y-120125831D01*
X129874725Y-120150705D01*
X129960000Y-120159104D01*
X131660000Y-120159104D01*
X131745275Y-120150705D01*
X131827272Y-120125831D01*
X131902842Y-120085439D01*
X131969079Y-120031079D01*
X132023439Y-119964842D01*
X132063831Y-119889272D01*
X132088705Y-119807275D01*
X132097104Y-119722000D01*
X132097104Y-118022000D01*
X132088705Y-117936725D01*
X132063831Y-117854728D01*
X132023439Y-117779158D01*
X131969079Y-117712921D01*
X131902842Y-117658561D01*
X131827272Y-117618169D01*
X131745275Y-117593295D01*
X131660000Y-117584896D01*
X129960000Y-117584896D01*
X129874725Y-117593295D01*
X129792728Y-117618169D01*
X129717158Y-117658561D01*
X129650921Y-117712921D01*
X129596561Y-117779158D01*
X129556169Y-117854728D01*
X129531295Y-117936725D01*
X129522896Y-118022000D01*
X129522896Y-118584038D01*
X129505619Y-118497179D01*
X129408753Y-118263324D01*
X129268125Y-118052860D01*
X129089140Y-117873875D01*
X128878676Y-117733247D01*
X128644821Y-117636381D01*
X128396561Y-117587000D01*
X128143439Y-117587000D01*
X127895179Y-117636381D01*
X127661324Y-117733247D01*
X127450860Y-117873875D01*
X127271875Y-118052860D01*
X127131247Y-118263324D01*
X127034381Y-118497179D01*
X127000000Y-118670027D01*
X126965619Y-118497179D01*
X126868753Y-118263324D01*
X126728125Y-118052860D01*
X126549140Y-117873875D01*
X126338676Y-117733247D01*
X126104821Y-117636381D01*
X125856561Y-117587000D01*
X125603439Y-117587000D01*
X125355179Y-117636381D01*
X125121324Y-117733247D01*
X124910860Y-117873875D01*
X124731875Y-118052860D01*
X124591247Y-118263324D01*
X124507289Y-118466016D01*
X124460737Y-118321128D01*
X124328850Y-118083804D01*
X124153198Y-117876770D01*
X123940531Y-117707982D01*
X123699021Y-117583927D01*
X123482379Y-117518213D01*
X123267000Y-117623121D01*
X123113000Y-117623121D01*
X122897621Y-117518213D01*
X122680979Y-117583927D01*
X122439469Y-117707982D01*
X122226802Y-117876770D01*
X122051150Y-118083804D01*
X121919263Y-118321128D01*
X121836210Y-118579621D01*
X111458000Y-118579621D01*
X111458000Y-115223506D01*
X111629800Y-115223506D01*
X111629800Y-115459294D01*
X111675800Y-115690552D01*
X111766032Y-115908392D01*
X111897029Y-116104443D01*
X112063757Y-116271171D01*
X112259808Y-116402168D01*
X112477648Y-116492400D01*
X112708906Y-116538400D01*
X112944694Y-116538400D01*
X113175952Y-116492400D01*
X113393792Y-116402168D01*
X113589843Y-116271171D01*
X113756571Y-116104443D01*
X113887568Y-115908392D01*
X113977800Y-115690552D01*
X114023800Y-115459294D01*
X114023800Y-115223506D01*
X118132200Y-115223506D01*
X118132200Y-115459294D01*
X118178200Y-115690552D01*
X118268432Y-115908392D01*
X118399429Y-116104443D01*
X118566157Y-116271171D01*
X118762208Y-116402168D01*
X118980048Y-116492400D01*
X119211306Y-116538400D01*
X119447094Y-116538400D01*
X119678352Y-116492400D01*
X119896192Y-116402168D01*
X120092243Y-116271171D01*
X120258971Y-116104443D01*
X120389968Y-115908392D01*
X120480200Y-115690552D01*
X120526200Y-115459294D01*
X120526200Y-115223506D01*
X120480200Y-114992248D01*
X120389968Y-114774408D01*
X120258971Y-114578357D01*
X120092243Y-114411629D01*
X119896192Y-114280632D01*
X119678352Y-114190400D01*
X119447094Y-114144400D01*
X119211306Y-114144400D01*
X118980048Y-114190400D01*
X118762208Y-114280632D01*
X118566157Y-114411629D01*
X118399429Y-114578357D01*
X118268432Y-114774408D01*
X118178200Y-114992248D01*
X118132200Y-115223506D01*
X114023800Y-115223506D01*
X113977800Y-114992248D01*
X113887568Y-114774408D01*
X113756571Y-114578357D01*
X113589843Y-114411629D01*
X113393792Y-114280632D01*
X113175952Y-114190400D01*
X112944694Y-114144400D01*
X112708906Y-114144400D01*
X112477648Y-114190400D01*
X112259808Y-114280632D01*
X112063757Y-114411629D01*
X111897029Y-114578357D01*
X111766032Y-114774408D01*
X111675800Y-114992248D01*
X111629800Y-115223506D01*
X111458000Y-115223506D01*
X111458000Y-109197410D01*
X111456073Y-109177841D01*
X111456094Y-109174761D01*
X111455468Y-109168368D01*
X111445104Y-109069767D01*
X111436724Y-109028944D01*
X111428908Y-108987974D01*
X111427052Y-108981825D01*
X111397734Y-108887115D01*
X111381572Y-108848668D01*
X111365960Y-108810028D01*
X111362945Y-108804356D01*
X111315790Y-108717144D01*
X111292467Y-108682566D01*
X111269646Y-108647692D01*
X111265587Y-108642715D01*
X111202390Y-108566323D01*
X111172843Y-108536982D01*
X111143637Y-108507158D01*
X111138688Y-108503064D01*
X111061857Y-108440402D01*
X111027131Y-108417330D01*
X110992729Y-108393775D01*
X110987079Y-108390720D01*
X110899540Y-108344175D01*
X110861012Y-108328295D01*
X110822675Y-108311864D01*
X110816539Y-108309964D01*
X110721626Y-108281308D01*
X110680760Y-108273217D01*
X110639948Y-108264542D01*
X110633560Y-108263870D01*
X110534889Y-108254195D01*
X110534875Y-108254195D01*
X110512590Y-108252000D01*
X105940503Y-108252000D01*
X105909104Y-108248921D01*
X105900546Y-108246337D01*
X105892659Y-108242144D01*
X105885732Y-108236494D01*
X105880036Y-108229609D01*
X105875785Y-108221747D01*
X105873141Y-108213206D01*
X105870000Y-108183322D01*
X105870000Y-106043491D01*
X105923796Y-106173366D01*
X106139439Y-106496099D01*
X106413901Y-106770561D01*
X106736634Y-106986204D01*
X107095236Y-107134742D01*
X107475926Y-107210466D01*
X107864074Y-107210466D01*
X108244764Y-107134742D01*
X108603366Y-106986204D01*
X108926099Y-106770561D01*
X109200561Y-106496099D01*
X109416204Y-106173366D01*
X109564742Y-105814764D01*
X109595526Y-105660000D01*
X111872896Y-105660000D01*
X111872896Y-107360000D01*
X111881295Y-107445275D01*
X111906169Y-107527272D01*
X111946561Y-107602842D01*
X112000921Y-107669079D01*
X112067158Y-107723439D01*
X112142728Y-107763831D01*
X112224725Y-107788705D01*
X112310000Y-107797104D01*
X114010000Y-107797104D01*
X114095275Y-107788705D01*
X114177272Y-107763831D01*
X114252842Y-107723439D01*
X114319079Y-107669079D01*
X114373439Y-107602842D01*
X114413831Y-107527272D01*
X114438705Y-107445275D01*
X114447104Y-107360000D01*
X114447104Y-106797962D01*
X114464381Y-106884821D01*
X114561247Y-107118676D01*
X114701875Y-107329140D01*
X114880860Y-107508125D01*
X115091324Y-107648753D01*
X115325179Y-107745619D01*
X115573439Y-107795000D01*
X115826561Y-107795000D01*
X116074821Y-107745619D01*
X116308676Y-107648753D01*
X116519140Y-107508125D01*
X116698125Y-107329140D01*
X116838753Y-107118676D01*
X116935619Y-106884821D01*
X116970000Y-106711973D01*
X117004381Y-106884821D01*
X117101247Y-107118676D01*
X117241875Y-107329140D01*
X117420860Y-107508125D01*
X117631324Y-107648753D01*
X117865179Y-107745619D01*
X118113439Y-107795000D01*
X118366561Y-107795000D01*
X118614821Y-107745619D01*
X118848676Y-107648753D01*
X119059140Y-107508125D01*
X119238125Y-107329140D01*
X119378753Y-107118676D01*
X119475619Y-106884821D01*
X119510000Y-106711973D01*
X119544381Y-106884821D01*
X119641247Y-107118676D01*
X119781875Y-107329140D01*
X119960860Y-107508125D01*
X120171324Y-107648753D01*
X120405179Y-107745619D01*
X120653439Y-107795000D01*
X120906561Y-107795000D01*
X121154821Y-107745619D01*
X121388676Y-107648753D01*
X121599140Y-107508125D01*
X121778125Y-107329140D01*
X121918753Y-107118676D01*
X122002711Y-106915984D01*
X122049263Y-107060872D01*
X122181150Y-107298196D01*
X122356802Y-107505230D01*
X122569469Y-107674018D01*
X122810979Y-107798073D01*
X123027621Y-107863787D01*
X123243000Y-107758879D01*
X123243000Y-106587000D01*
X123223000Y-106587000D01*
X123223000Y-106433000D01*
X123243000Y-106433000D01*
X123243000Y-106413000D01*
X123397000Y-106413000D01*
X123397000Y-106433000D01*
X123417000Y-106433000D01*
X123417000Y-106587000D01*
X123397000Y-106587000D01*
X123397000Y-107758879D01*
X123612379Y-107863787D01*
X123829021Y-107798073D01*
X124070531Y-107674018D01*
X124283198Y-107505230D01*
X124458850Y-107298196D01*
X124590737Y-107060872D01*
X124637289Y-106915984D01*
X124721247Y-107118676D01*
X124861875Y-107329140D01*
X125040860Y-107508125D01*
X125251324Y-107648753D01*
X125485179Y-107745619D01*
X125733439Y-107795000D01*
X125986561Y-107795000D01*
X126234821Y-107745619D01*
X126468676Y-107648753D01*
X126679140Y-107508125D01*
X126858125Y-107329140D01*
X126998753Y-107118676D01*
X127095619Y-106884821D01*
X127130000Y-106711973D01*
X127164381Y-106884821D01*
X127261247Y-107118676D01*
X127401875Y-107329140D01*
X127580860Y-107508125D01*
X127791324Y-107648753D01*
X128025179Y-107745619D01*
X128273439Y-107795000D01*
X128526561Y-107795000D01*
X128774821Y-107745619D01*
X129008676Y-107648753D01*
X129219140Y-107508125D01*
X129398125Y-107329140D01*
X129538753Y-107118676D01*
X129635619Y-106884821D01*
X129670000Y-106711973D01*
X129704381Y-106884821D01*
X129801247Y-107118676D01*
X129941875Y-107329140D01*
X130120860Y-107508125D01*
X130331324Y-107648753D01*
X130565179Y-107745619D01*
X130813439Y-107795000D01*
X131066561Y-107795000D01*
X131314821Y-107745619D01*
X131548676Y-107648753D01*
X131759140Y-107508125D01*
X131938125Y-107329140D01*
X132078753Y-107118676D01*
X132175619Y-106884821D01*
X132225000Y-106636561D01*
X132225000Y-106383439D01*
X132175619Y-106135179D01*
X132078753Y-105901324D01*
X131938125Y-105690860D01*
X131759140Y-105511875D01*
X131548676Y-105371247D01*
X131314821Y-105274381D01*
X131141973Y-105240000D01*
X131314821Y-105205619D01*
X131548676Y-105108753D01*
X131759140Y-104968125D01*
X131938125Y-104789140D01*
X132078753Y-104578676D01*
X132175619Y-104344821D01*
X132225000Y-104096561D01*
X132225000Y-103843439D01*
X132175619Y-103595179D01*
X132078753Y-103361324D01*
X131938125Y-103150860D01*
X131759140Y-102971875D01*
X131548676Y-102831247D01*
X131314821Y-102734381D01*
X131066561Y-102685000D01*
X130813439Y-102685000D01*
X130565179Y-102734381D01*
X130331324Y-102831247D01*
X130120860Y-102971875D01*
X129941875Y-103150860D01*
X129801247Y-103361324D01*
X129704381Y-103595179D01*
X129670000Y-103768027D01*
X129635619Y-103595179D01*
X129538753Y-103361324D01*
X129398125Y-103150860D01*
X129219140Y-102971875D01*
X129008676Y-102831247D01*
X128774821Y-102734381D01*
X128526561Y-102685000D01*
X128273439Y-102685000D01*
X128025179Y-102734381D01*
X127791324Y-102831247D01*
X127580860Y-102971875D01*
X127401875Y-103150860D01*
X127261247Y-103361324D01*
X127164381Y-103595179D01*
X127130000Y-103768027D01*
X127095619Y-103595179D01*
X126998753Y-103361324D01*
X126858125Y-103150860D01*
X126679140Y-102971875D01*
X126468676Y-102831247D01*
X126234821Y-102734381D01*
X125986561Y-102685000D01*
X125733439Y-102685000D01*
X125485179Y-102734381D01*
X125251324Y-102831247D01*
X125040860Y-102971875D01*
X124861875Y-103150860D01*
X124721247Y-103361324D01*
X124624381Y-103595179D01*
X124590000Y-103768027D01*
X124555619Y-103595179D01*
X124458753Y-103361324D01*
X124318125Y-103150860D01*
X124139140Y-102971875D01*
X123928676Y-102831247D01*
X123694821Y-102734381D01*
X123446561Y-102685000D01*
X123193439Y-102685000D01*
X122945179Y-102734381D01*
X122711324Y-102831247D01*
X122500860Y-102971875D01*
X122321875Y-103150860D01*
X122181247Y-103361324D01*
X122084381Y-103595179D01*
X122050000Y-103768027D01*
X122015619Y-103595179D01*
X121918753Y-103361324D01*
X121778125Y-103150860D01*
X121599140Y-102971875D01*
X121388676Y-102831247D01*
X121154821Y-102734381D01*
X120906561Y-102685000D01*
X120653439Y-102685000D01*
X120405179Y-102734381D01*
X120171324Y-102831247D01*
X119960860Y-102971875D01*
X119781875Y-103150860D01*
X119641247Y-103361324D01*
X119557289Y-103564016D01*
X119510737Y-103419128D01*
X119378850Y-103181804D01*
X119203198Y-102974770D01*
X118990531Y-102805982D01*
X118749021Y-102681927D01*
X118532379Y-102616213D01*
X118317000Y-102721121D01*
X118317000Y-103893000D01*
X118337000Y-103893000D01*
X118337000Y-104047000D01*
X118317000Y-104047000D01*
X118317000Y-104067000D01*
X118163000Y-104067000D01*
X118163000Y-104047000D01*
X118143000Y-104047000D01*
X118143000Y-103893000D01*
X118163000Y-103893000D01*
X118163000Y-102721121D01*
X117947621Y-102616213D01*
X117730979Y-102681927D01*
X117489469Y-102805982D01*
X117276802Y-102974770D01*
X117101150Y-103181804D01*
X116969263Y-103419128D01*
X116922711Y-103564016D01*
X116838753Y-103361324D01*
X116698125Y-103150860D01*
X116519140Y-102971875D01*
X116308676Y-102831247D01*
X116074821Y-102734381D01*
X115826561Y-102685000D01*
X115573439Y-102685000D01*
X115325179Y-102734381D01*
X115091324Y-102831247D01*
X114880860Y-102971875D01*
X114701875Y-103150860D01*
X114561247Y-103361324D01*
X114464381Y-103595179D01*
X114430000Y-103768027D01*
X114395619Y-103595179D01*
X114298753Y-103361324D01*
X114158125Y-103150860D01*
X113979140Y-102971875D01*
X113768676Y-102831247D01*
X113534821Y-102734381D01*
X113286561Y-102685000D01*
X113033439Y-102685000D01*
X112785179Y-102734381D01*
X112551324Y-102831247D01*
X112340860Y-102971875D01*
X112161875Y-103150860D01*
X112021247Y-103361324D01*
X111924381Y-103595179D01*
X111875000Y-103843439D01*
X111875000Y-104096561D01*
X111924381Y-104344821D01*
X112021247Y-104578676D01*
X112161875Y-104789140D01*
X112340860Y-104968125D01*
X112551324Y-105108753D01*
X112785179Y-105205619D01*
X112872038Y-105222896D01*
X112310000Y-105222896D01*
X112224725Y-105231295D01*
X112142728Y-105256169D01*
X112067158Y-105296561D01*
X112000921Y-105350921D01*
X111946561Y-105417158D01*
X111906169Y-105492728D01*
X111881295Y-105574725D01*
X111872896Y-105660000D01*
X109595526Y-105660000D01*
X109640466Y-105434074D01*
X109640466Y-105045926D01*
X109564742Y-104665236D01*
X109416204Y-104306634D01*
X109200561Y-103983901D01*
X108926099Y-103709439D01*
X108603366Y-103493796D01*
X108244764Y-103345258D01*
X107864074Y-103269534D01*
X107475926Y-103269534D01*
X107095236Y-103345258D01*
X106736634Y-103493796D01*
X106413901Y-103709439D01*
X106139439Y-103983901D01*
X105923796Y-104306634D01*
X105870000Y-104436509D01*
X105870000Y-102384501D01*
X105873078Y-102353107D01*
X105875662Y-102344548D01*
X105879858Y-102336657D01*
X105885506Y-102329732D01*
X105892391Y-102324036D01*
X105900253Y-102319785D01*
X105908794Y-102317141D01*
X105938678Y-102314000D01*
X132565499Y-102314000D01*
X132596893Y-102317078D01*
%TD*%
M02*
