%TF.GenerationSoftware,KiCad,Pcbnew,(5.1.6-0-10_14)*%
%TF.CreationDate,2020-11-28T15:25:20+01:00*%
%TF.ProjectId,Raspberry_Pi_Hat,52617370-6265-4727-9279-5f50695f4861,v1.0*%
%TF.SameCoordinates,Original*%
%TF.FileFunction,Paste,Top*%
%TF.FilePolarity,Positive*%
%FSLAX46Y46*%
G04 Gerber Fmt 4.6, Leading zero omitted, Abs format (unit mm)*
G04 Created by KiCad (PCBNEW (5.1.6-0-10_14)) date 2020-11-28 15:25:20*
%MOMM*%
%LPD*%
G01*
G04 APERTURE LIST*
G04 APERTURE END LIST*
%TO.C,R4*%
G36*
G01*
X127117500Y-110692250D02*
X127117500Y-109779750D01*
G75*
G02*
X127361250Y-109536000I243750J0D01*
G01*
X127848750Y-109536000D01*
G75*
G02*
X128092500Y-109779750I0J-243750D01*
G01*
X128092500Y-110692250D01*
G75*
G02*
X127848750Y-110936000I-243750J0D01*
G01*
X127361250Y-110936000D01*
G75*
G02*
X127117500Y-110692250I0J243750D01*
G01*
G37*
G36*
G01*
X125242500Y-110692250D02*
X125242500Y-109779750D01*
G75*
G02*
X125486250Y-109536000I243750J0D01*
G01*
X125973750Y-109536000D01*
G75*
G02*
X126217500Y-109779750I0J-243750D01*
G01*
X126217500Y-110692250D01*
G75*
G02*
X125973750Y-110936000I-243750J0D01*
G01*
X125486250Y-110936000D01*
G75*
G02*
X125242500Y-110692250I0J243750D01*
G01*
G37*
%TD*%
%TO.C,D2*%
G36*
G01*
X130438500Y-109779750D02*
X130438500Y-110692250D01*
G75*
G02*
X130194750Y-110936000I-243750J0D01*
G01*
X129707250Y-110936000D01*
G75*
G02*
X129463500Y-110692250I0J243750D01*
G01*
X129463500Y-109779750D01*
G75*
G02*
X129707250Y-109536000I243750J0D01*
G01*
X130194750Y-109536000D01*
G75*
G02*
X130438500Y-109779750I0J-243750D01*
G01*
G37*
G36*
G01*
X132313500Y-109779750D02*
X132313500Y-110692250D01*
G75*
G02*
X132069750Y-110936000I-243750J0D01*
G01*
X131582250Y-110936000D01*
G75*
G02*
X131338500Y-110692250I0J243750D01*
G01*
X131338500Y-109779750D01*
G75*
G02*
X131582250Y-109536000I243750J0D01*
G01*
X132069750Y-109536000D01*
G75*
G02*
X132313500Y-109779750I0J-243750D01*
G01*
G37*
%TD*%
%TO.C,D1*%
G36*
G01*
X132313500Y-113589750D02*
X132313500Y-114502250D01*
G75*
G02*
X132069750Y-114746000I-243750J0D01*
G01*
X131582250Y-114746000D01*
G75*
G02*
X131338500Y-114502250I0J243750D01*
G01*
X131338500Y-113589750D01*
G75*
G02*
X131582250Y-113346000I243750J0D01*
G01*
X132069750Y-113346000D01*
G75*
G02*
X132313500Y-113589750I0J-243750D01*
G01*
G37*
G36*
G01*
X130438500Y-113589750D02*
X130438500Y-114502250D01*
G75*
G02*
X130194750Y-114746000I-243750J0D01*
G01*
X129707250Y-114746000D01*
G75*
G02*
X129463500Y-114502250I0J243750D01*
G01*
X129463500Y-113589750D01*
G75*
G02*
X129707250Y-113346000I243750J0D01*
G01*
X130194750Y-113346000D01*
G75*
G02*
X130438500Y-113589750I0J-243750D01*
G01*
G37*
%TD*%
%TO.C,R1*%
G36*
G01*
X115549500Y-110541750D02*
X115549500Y-111454250D01*
G75*
G02*
X115305750Y-111698000I-243750J0D01*
G01*
X114818250Y-111698000D01*
G75*
G02*
X114574500Y-111454250I0J243750D01*
G01*
X114574500Y-110541750D01*
G75*
G02*
X114818250Y-110298000I243750J0D01*
G01*
X115305750Y-110298000D01*
G75*
G02*
X115549500Y-110541750I0J-243750D01*
G01*
G37*
G36*
G01*
X117424500Y-110541750D02*
X117424500Y-111454250D01*
G75*
G02*
X117180750Y-111698000I-243750J0D01*
G01*
X116693250Y-111698000D01*
G75*
G02*
X116449500Y-111454250I0J243750D01*
G01*
X116449500Y-110541750D01*
G75*
G02*
X116693250Y-110298000I243750J0D01*
G01*
X117180750Y-110298000D01*
G75*
G02*
X117424500Y-110541750I0J-243750D01*
G01*
G37*
%TD*%
%TO.C,R2*%
G36*
G01*
X123392250Y-116311500D02*
X122479750Y-116311500D01*
G75*
G02*
X122236000Y-116067750I0J243750D01*
G01*
X122236000Y-115580250D01*
G75*
G02*
X122479750Y-115336500I243750J0D01*
G01*
X123392250Y-115336500D01*
G75*
G02*
X123636000Y-115580250I0J-243750D01*
G01*
X123636000Y-116067750D01*
G75*
G02*
X123392250Y-116311500I-243750J0D01*
G01*
G37*
G36*
G01*
X123392250Y-114436500D02*
X122479750Y-114436500D01*
G75*
G02*
X122236000Y-114192750I0J243750D01*
G01*
X122236000Y-113705250D01*
G75*
G02*
X122479750Y-113461500I243750J0D01*
G01*
X123392250Y-113461500D01*
G75*
G02*
X123636000Y-113705250I0J-243750D01*
G01*
X123636000Y-114192750D01*
G75*
G02*
X123392250Y-114436500I-243750J0D01*
G01*
G37*
%TD*%
%TO.C,R3*%
G36*
G01*
X125145500Y-114502250D02*
X125145500Y-113589750D01*
G75*
G02*
X125389250Y-113346000I243750J0D01*
G01*
X125876750Y-113346000D01*
G75*
G02*
X126120500Y-113589750I0J-243750D01*
G01*
X126120500Y-114502250D01*
G75*
G02*
X125876750Y-114746000I-243750J0D01*
G01*
X125389250Y-114746000D01*
G75*
G02*
X125145500Y-114502250I0J243750D01*
G01*
G37*
G36*
G01*
X127020500Y-114502250D02*
X127020500Y-113589750D01*
G75*
G02*
X127264250Y-113346000I243750J0D01*
G01*
X127751750Y-113346000D01*
G75*
G02*
X127995500Y-113589750I0J-243750D01*
G01*
X127995500Y-114502250D01*
G75*
G02*
X127751750Y-114746000I-243750J0D01*
G01*
X127264250Y-114746000D01*
G75*
G02*
X127020500Y-114502250I0J243750D01*
G01*
G37*
%TD*%
M02*
